<svg xmlns="http://www.w3.org/2000/svg" version="1.0" width="840.000000" height="859.000000" preserveAspectRatio="xMidYMid meet"><rect id="backgroundrect" width="100%" height="100%" x="0" y="0" fill="none" stroke="none"/>


<g class="currentLayer" style=""><title>Layer 1</title><g transform="translate(0,859) scale(0.10000000149011612,-0.10000000149011612) " fill="#f85a16" stroke="#f85a16" id="svg_1" class="selected" fill-opacity="1" stroke-opacity="1">
<path d="M7633 6375 c-86 -19 -173 -68 -232 -130 -57 -60 -90 -122 -120 -222 -21 -72 -22 -72 -81 -104 -79 -42 -163 -131 -202 -216 -27 -56 -33 -83 -36 -156 -10 -203 86 -360 270 -441 64 -29 113 -68 151 -124 l27 -38 -2 -349 -3 -348 -47 -12 c-175 -44 -315 -273 -278 -458 27 -138 132 -274 243 -315 32 -12 64 -22 71 -22 10 0 14 -77 19 -387 3 -214 9 -398 13 -410 l6 -23 -306 0 -306 0 -1 703 c-1 1070 -13 1758 -34 1832 -21 78 -94 214 -156 292 -105 133 -292 252 -430 273 -149 23 -695 30 -2234 29 -1848 0 -2267 -7 -2361 -37 -224 -71 -385 -213 -503 -442 l-59 -115 -7 -1265 c-4 -696 -8 -1266 -9 -1267 -1 -1 -137 -3 -302 -4 -409 -3 -537 -11 -595 -36 -89 -40 -121 -144 -79 -256 12 -32 32 -64 44 -72 12 -8 62 -19 111 -25 157 -19 1448 -29 3845 -29 2576 1 3983 10 4042 28 75 23 138 130 123 210 -25 131 -112 179 -332 180 l-63 1 0 343 c1 188 5 412 9 497 13 231 34 274 151 309 79 24 172 89 212 147 58 84 73 132 73 234 0 82 -4 103 -27 152 -58 125 -183 215 -333 239 l-75 12 0 112 0 112 80 16 c276 56 470 285 470 557 -1 156 -37 255 -139 383 -74 92 -81 109 -81 207 0 50 -7 101 -20 143 -64 208 -294 341 -507 292z m-4526 -865 c45 -6 97 -17 115 -24 64 -27 158 -118 158 -153 0 -19 -56 -51 -103 -58 -37 -7 -42 -4 -78 33 -54 55 -101 76 -174 76 -74 0 -142 -30 -184 -81 -41 -50 -66 -146 -58 -225 12 -120 41 -180 107 -224 68 -45 221 -44 315 4 40 20 45 29 45 90 l0 52 -95 0 -95 0 0 60 0 60 180 0 180 0 -1 -67 c-1 -141 -15 -232 -38 -257 -31 -33 -146 -84 -227 -101 -225 -48 -418 25 -501 190 -58 114 -58 321 0 445 55 117 158 172 357 189 9 0 52 -4 97 -9z m671 -163 c53 -92 100 -166 105 -164 5 1 52 78 105 170 l97 167 60 0 c67 0 105 -8 105 -21 0 -5 -62 -109 -137 -231 l-138 -223 -5 -175 -5 -175 -85 0 -85 0 -5 175 -5 175 -121 200 c-179 295 -175 277 -58 273 l77 -3 95 -168z m850 58 c98 -319 145 -456 152 -449 12 14 82 212 135 384 26 85 51 158 54 161 3 4 54 9 114 13 l107 7 -2 -413 -3 -413 -67 -3 -68 -3 0 88 c0 48 -3 187 -7 308 l-6 220 -33 -100 c-18 -55 -62 -194 -99 -308 l-66 -208 -62 3 -62 3 -36 110 c-20 61 -63 197 -95 302 -32 106 -60 191 -62 188 -3 -3 -8 -139 -11 -302 l-6 -298 -67 -3 -68 -3 0 416 0 416 112 -3 112 -3 34 -110z m-107 -1870 c-2 -478 -4 -871 -5 -872 0 0 -268 -4 -593 -8 l-593 -8 0 882 0 881 598 -2 597 -3 -4 -870z m-2271 120 l0 -695 -350 0 -350 0 0 695 0 695 350 0 350 0 0 -695z m826 20 c1 -368 -1 -680 -3 -692 l-5 -23 -339 0 -339 0 0 695 0 695 343 -2 342 -3 1 -670z m2364 -20 l0 -695 -340 0 -340 0 0 695 0 695 340 0 340 0 0 -695z m840 0 l0 -695 -350 0 -350 0 0 688 c0 379 3 692 7 695 3 4 161 7 350 7 l343 0 0 -695z" id="svg_2" fill="#f85a16" stroke="#f85a16"/>
</g></g></svg>