<svg xmlns="http://www.w3.org/2000/svg" version="1.0" width="512.000000" height="387.000000" preserveAspectRatio="xMidYMid meet" style=""><rect id="backgroundrect" width="100%" height="100%" x="0" y="0" fill="none" stroke="none"/>


<g class="currentLayer" style=""><title>Layer 1</title><g transform="translate(0,387) scale(0.10000000149011612,-0.10000000149011612) " fill="#f85a16" stroke="#f85a16" id="svg_1" class="selected" fill-opacity="1" stroke-opacity="1">
<path d="M3007 3863 c-3 -5 3 -55 14 -113 10 -58 18 -108 17 -112 -2 -5 -74 35 -161 87 -226 136 -232 132 -88 -65 l99 -135 -112 -6 c-61 -4 -130 -7 -153 -8 -71 -2 -52 -24 75 -91 64 -34 120 -65 125 -69 4 -4 -28 -15 -70 -25 -111 -25 -113 -26 -113 -42 0 -20 29 -17 155 14 74 18 110 32 110 41 0 7 -52 41 -115 75 l-115 61 132 3 c93 2 132 6 136 15 2 7 -20 46 -50 87 -30 41 -68 94 -84 117 l-30 43 141 -85 c143 -86 155 -92 164 -76 5 7 -11 112 -30 191 -4 21 5 15 53 -32 32 -32 66 -58 74 -58 11 0 20 17 29 57 l12 57 29 -35 c22 -27 30 -31 40 -22 10 10 5 24 -24 68 -21 30 -44 55 -52 55 -13 0 -35 -55 -35 -91 0 -32 -14 -27 -82 34 -74 66 -83 73 -91 60z" id="svg_2" fill="#f85a16" stroke="#f85a16"/>
<path d="M1430 3676 c-139 -31 -236 -122 -275 -260 -32 -110 -2 -242 75 -329 17 -20 36 -37 41 -37 5 0 70 41 145 90 131 87 153 96 219 91 60 -5 115 -58 134 -128 7 -26 7 -25 39 23 139 218 13 506 -242 553 -69 13 -65 13 -136 -3z" id="svg_3" fill="#f85a16" stroke="#f85a16"/>
<path d="M3304 3651 c-12 -5 -25 -15 -29 -21 -3 -6 -36 -248 -71 -538 l-65 -527 25 -22 c32 -27 124 -47 177 -38 77 13 77 10 -28 262 -53 126 -98 242 -100 259 -10 65 99 142 212 152 l61 4 26 207 c27 221 27 221 -25 247 -34 18 -154 28 -183 15z" id="svg_4" fill="#f85a16" stroke="#f85a16"/>
<path d="M3587 3568 c-12 -9 -21 -42 -30 -115 l-13 -101 25 -5 c14 -3 53 -8 86 -12 l60 -6 28 58 c38 80 36 107 -12 154 -33 34 -45 39 -83 39 -24 0 -52 -6 -61 -12z" id="svg_5" fill="#f85a16" stroke="#f85a16"/>
<path d="M3973 3542 c-62 -22 -128 -71 -170 -126 -39 -51 -73 -150 -73 -214 0 -42 3 -50 29 -65 35 -20 58 -57 96 -152 15 -38 39 -80 52 -92 65 -61 244 -70 348 -18 123 63 198 185 198 325 0 140 -69 253 -195 320 -55 30 -74 34 -148 37 -64 3 -98 -1 -137 -15z" id="svg_6" fill="#f85a16" stroke="#f85a16"/>
<path d="M3527 3221 c-4 -38 -2 -70 5 -86 l11 -24 29 21 c17 11 50 23 74 26 42 4 44 6 44 37 0 19 3 40 6 48 6 17 -12 23 -102 33 l-61 6 -6 -61z" id="svg_7" fill="#f85a16" stroke="#f85a16"/>
<path d="M1561 3189 c-13 -5 -37 -19 -54 -31 -17 -12 -45 -22 -62 -23 -54 0 -45 -33 45 -154 44 -60 88 -111 96 -113 9 -2 -134 -104 -317 -228 -387 -262 -411 -277 -460 -285 l-36 -6 -23 -140 c-19 -115 -26 -139 -40 -139 -26 0 -53 -35 -45 -59 9 -29 25 -36 150 -60 276 -53 516 -71 685 -52 134 16 169 43 121 95 -19 21 -18 26 36 336 30 173 56 316 58 318 2 2 246 55 542 118 296 63 545 118 554 122 14 6 12 21 -20 127 -26 87 -41 119 -51 118 -91 -13 -1072 -228 -1092 -239 -27 -15 -28 -14 -28 8 1 15 14 32 40 50 51 36 73 70 73 118 0 89 -91 152 -172 119z" id="svg_8" fill="#f85a16" stroke="#f85a16"/>
<path d="M2797 3183 c-4 -3 -7 -15 -7 -25 0 -28 60 -230 76 -255 16 -26 42 -30 50 -9 3 8 31 20 62 27 85 17 119 34 142 71 41 67 13 155 -58 185 -34 14 -44 14 -122 0 -74 -15 -85 -15 -93 -2 -8 15 -38 20 -50 8z" id="svg_9" fill="#f85a16" stroke="#f85a16"/>
<path d="M3387 3136 c-61 -17 -131 -65 -135 -94 -4 -24 381 -965 406 -994 22 -26 77 -22 142 8 61 28 100 60 100 82 0 26 -402 987 -418 1000 -19 15 -33 14 -95 -2z" id="svg_10" fill="#f85a16" stroke="#f85a16"/>
<path d="M3625 3116 c-16 -7 -38 -22 -47 -32 -16 -18 -15 -23 13 -91 l30 -71 92 38 c58 25 91 44 89 52 -12 45 -38 79 -76 98 -49 23 -60 24 -101 6z" id="svg_11" fill="#f85a16" stroke="#f85a16"/>
<path d="M1146 2915 c-201 -137 -227 -151 -221 -127 4 15 7 27 8 28 22 12 248 168 252 173 2 5 -43 16 -100 25 -95 16 -109 16 -157 2 -101 -29 -186 -154 -234 -344 -43 -169 -34 -222 49 -267 30 -16 42 -18 74 -9 21 5 189 112 376 238 l338 228 -18 27 c-37 56 -128 180 -133 180 -3 0 -108 -69 -234 -154z" id="svg_12" fill="#f85a16" stroke="#f85a16"/>
<path d="M4353 2900 c-76 -70 -144 -94 -263 -94 -67 0 -106 5 -133 17 -45 20 -46 25 12 -113 l37 -89 120 91 c173 132 200 148 252 148 111 0 191 -101 163 -207 -13 -48 -47 -81 -234 -222 -123 -94 -146 -116 -142 -134 35 -170 50 -352 41 -508 l-8 -126 -250 -243 c-155 -151 -256 -257 -265 -278 -20 -48 -136 -906 -130 -965 9 -102 92 -172 204 -172 52 0 68 5 104 30 76 54 82 74 140 520 l53 400 98 100 98 100 -6 -185 c-6 -181 -6 -186 17 -227 46 -82 512 -685 549 -709 80 -53 187 -38 253 35 61 68 72 148 30 226 -10 19 -115 162 -233 317 -203 267 -215 285 -213 323 1 22 7 171 14 330 l11 290 39 59 c52 79 66 133 80 313 13 172 3 319 -32 482 -26 120 -74 271 -106 335 -37 73 -107 142 -179 176 -34 17 -63 30 -65 30 -2 -1 -28 -23 -56 -50z" id="svg_13" fill="#f85a16" stroke="#f85a16"/>
<path d="M3740 2899 c-41 -17 -79 -34 -83 -38 -6 -6 103 -289 119 -309 4 -6 163 112 164 121 0 22 -104 257 -114 256 -6 0 -45 -14 -86 -30z" id="svg_14" fill="#f85a16" stroke="#f85a16"/>
<path d="M4347 2820 c-15 -5 -100 -63 -187 -129 -87 -67 -163 -121 -169 -121 -6 0 -11 7 -11 15 0 8 -5 15 -10 15 -17 0 -160 -111 -160 -124 0 -6 22 -63 48 -126 71 -167 55 -170 364 63 133 101 254 199 266 218 64 92 -33 220 -141 189z" id="svg_15" fill="#f85a16" stroke="#f85a16"/>
<path d="M555 1560 c-118 -276 -153 -350 -167 -350 -25 0 -43 -42 -30 -66 7 -12 83 -48 206 -97 162 -65 199 -76 216 -67 21 11 28 58 11 75 -5 6 13 61 45 136 l55 125 240 28 241 28 84 -88 c46 -49 86 -100 89 -114 10 -40 21 -55 42 -58 18 -3 350 187 395 226 40 34 11 90 -39 78 -16 -4 -33 -8 -40 -9 -6 -1 -86 79 -178 178 -161 175 -166 181 -160 215 l6 35 -218 0 c-224 1 -342 13 -551 56 -52 10 -95 19 -96 19 -2 0 -70 -157 -151 -350z" id="svg_16" fill="#f85a16" stroke="#f85a16"/>
<path d="M1845 1170 c-88 -54 -164 -100 -169 -102 -8 -3 108 -665 156 -892 11 -52 60 -117 107 -140 127 -64 291 35 291 175 0 53 -180 999 -196 1030 -8 16 -18 29 -22 28 -4 0 -79 -45 -167 -99z" id="svg_17" fill="#f85a16" stroke="#f85a16"/>
<path d="M174 668 c-158 -368 -169 -397 -169 -455 0 -52 5 -68 30 -105 54 -77 164 -110 248 -74 70 30 89 64 266 481 l170 399 -177 73 c-97 40 -182 72 -189 73 -6 0 -87 -177 -179 -392z" id="svg_18" fill="#f85a16" stroke="#f85a16"/>
</g></g></svg>