<?xml version="1.0" standalone="no"?>
<!DOCTYPE svg PUBLIC "-//W3C//DTD SVG 20010904//EN"
 "http://www.w3.org/TR/2001/REC-SVG-20010904/DTD/svg10.dtd">
<svg version="1.0" xmlns="http://www.w3.org/2000/svg"
 width="512.000000pt" height="512.000000pt" viewBox="0 0 512.000000 512.000000"
 preserveAspectRatio="xMidYMid meet">

<g transform="translate(0.000000,512.000000) scale(0.100000,-0.100000)"
fill="#000000" stroke="none">
<path d="M3962 4943 c-12 -4 -1136 -1309 -1154 -1339 -6 -8 18 -193 25 -201 1
-1 210 241 465 538 307 359 468 539 481 539 24 0 321 -245 321 -265 0 -9 -291
-367 -647 -798 l-648 -782 -5 -1020 -5 -1020 -235 0 -235 0 -5 910 c-4 755 -7
914 -19 931 -12 18 -41 25 -215 50 l-201 30 -11 -36 c-6 -20 -15 -54 -18 -76
l-7 -40 133 -19 c73 -10 143 -22 156 -26 l22 -9 0 -1034 c0 -692 3 -1044 10
-1062 21 -54 77 -71 121 -35 22 18 24 29 29 133 l5 113 285 5 c199 3 291 9
306 17 12 7 27 27 33 44 8 23 11 335 11 1060 l0 1029 663 800 c364 440 666
810 671 823 18 49 1 69 -204 236 -110 90 -200 170 -200 178 0 8 41 62 90 120
73 87 90 112 90 139 0 51 -58 87 -108 67z"/>
<path d="M905 4310 c-140 -34 -238 -149 -266 -309 -33 -183 92 -421 294 -560
26 -17 47 -39 47 -47 0 -8 -13 -40 -29 -72 -32 -64 -71 -182 -71 -217 0 -13
118 -247 263 -521 289 -544 287 -542 353 -511 30 15 36 25 63 114 16 54 77
253 135 442 58 188 106 356 106 371 0 33 -40 70 -75 70 -52 0 -62 -22 -164
-355 -92 -298 -100 -320 -121 -320 -20 0 -48 46 -212 355 -156 294 -188 360
-184 386 5 37 70 180 92 205 9 10 38 23 65 29 76 18 122 58 163 141 20 39 36
80 36 89 0 23 52 69 137 119 l69 41 388 26 c216 14 392 22 397 17 4 -4 36
-166 69 -358 42 -242 67 -358 79 -375 20 -28 68 -38 99 -21 44 23 42 46 -34
476 -82 464 -75 445 -168 445 -28 0 -235 -13 -461 -29 l-410 -28 -54 -32 c-78
-46 -92 -41 -114 44 -52 199 -153 320 -315 374 -62 21 -122 25 -177 11z m201
-191 c98 -70 143 -169 151 -335 6 -111 -10 -189 -48 -237 -47 -60 -159 -20
-275 98 -92 93 -137 180 -142 276 -5 77 9 126 46 171 47 55 79 69 153 66 56
-3 72 -8 115 -39z"/>
<path d="M1792 3627 c-28 -30 -29 -78 -1 -103 26 -23 503 -313 508 -308 2 1
-5 46 -15 98 l-18 96 -199 120 c-125 75 -209 120 -226 120 -16 0 -37 -10 -49
-23z"/>
<path d="M2184 2489 c-3 -5 9 -9 25 -9 17 0 31 2 31 4 0 8 -51 13 -56 5z"/>
</g>
</svg>
