<svg xmlns="http://www.w3.org/2000/svg" version="1.0" width="512.000000" height="512.000000" preserveAspectRatio="xMidYMid meet" style=""><rect id="backgroundrect" width="100%" height="100%" x="0" y="0" fill="none" stroke="none"/>


<g class="currentLayer" style=""><title>Layer 1</title>
<path d="M377.62714543072843,15.975379982907356 c-1.2849209023255241,0.4067597449833117 -121.63917875348295,133.11212654578873 -123.56656010697124,136.16282463316355 c-0.6424604511627621,0.8135194899666232 1.9273813534882862,19.626157695444782 2.6769185465115086,20.439677185411405 c0.10707674186046034,0.1016899362458279 22.486115790696672,-24.50727463524452 49.79068496511406,-54.709185700255404 c32.872559751161326,-36.506687112252216 50.11191519069544,-54.81087563650124 51.503912834881426,-54.81087563650124 c2.5698418046510483,0 34.37163413720777,24.914034380227832 34.37163413720777,26.94783310514439 c0,0.9152094262124512 -31.15933188139396,37.32020660221884 -69.27865198371785,81.14856912417066 l-69.3857287255783,79.52153014423742 l-0.5353837093023018,103.72373497074446 l-0.5353837093023018,103.72373497074446 l-25.16303433720818,0 l-25.16303433720818,0 l-0.5353837093023018,-92.53784198370339 c-0.4283069674418415,-76.77590186560006 -0.7495371930232225,-92.94460172868669 -2.0344580953487466,-94.67333064486577 c-1.2849209023255241,-1.830418852424902 -4.390146416278874,-2.5422484061456974 -23.021499499998974,-5.084496812291395 l-21.52242511395253,-3.050698087374837 l-1.1778441604650638,3.6608377048498046 c-0.6424604511627621,2.033798724916558 -1.6061511279069052,5.491256557274706 -1.9273813534882862,7.72843515468292 l-0.7495371930232225,4.067597449833116 l14.241206667441226,1.93210878867073 c7.816602155813605,1.016899362458279 15.31197408604583,2.2371785974082137 16.703971730231814,2.6439383423915253 l2.3556883209301276,0.9152094262124512 l0,105.14739407818604 c0,70.3694358821129 0.32123022558138103,106.16429344064431 1.0707674186046034,107.99471229306923 c2.2486115790696672,5.491256557274706 8.244909123255447,7.2199854734537805 12.956285765115702,3.5591477686039763 c2.3556883209301276,-1.830418852424902 2.5698418046510483,-2.949008151129009 3.10522551395335,-13.52476152069511 l0.5353837093023018,-11.490962795778552 l30.5168714302312,-0.5084496812291396 c21.30827163023161,-0.3050698087374837 31.15933188139396,-0.9152094262124512 32.765483009300866,-1.7287289161790742 c1.2849209023255241,-0.7118295537207954 2.8910720302324293,-2.745628278637353 3.5335324813951914,-4.474357194816427 c0.8566139348836828,-2.3388685336540416 1.1778441604650638,-34.066128642352346 1.1778441604650638,-107.79133242057756 l0,-104.6389443969569 l70.99187985348522,-81.35194899666232 c38.975934037207566,-44.74357194816427 71.31311007906659,-82.36884835912059 71.8484937883689,-83.69081753031635 c1.9273813534882862,-4.982806876045567 0.10707674186046034,-7.016605600962125 -21.84365533953391,-23.998824954015383 c-11.778441604650638,-9.15209426212451 -21.41534837209207,-17.287289161790742 -21.41534837209207,-18.100808651757365 c0,-0.8135194899666232 4.390146416278874,-6.3047760472413295 9.636906767441431,-12.202792349499347 c7.816602155813605,-8.847024453387027 9.636906767441431,-11.389272859532724 9.636906767441431,-14.134901138170077 c0,-5.186186748537223 -6.2104510279067,-8.847024453387027 -11.564288120929717,-6.813225728470469 z" id="svg_2" class="" stroke-opacity="1" stroke="#f85a16" fill-opacity="1" fill="#f85a16"/>
<path d="M37.285999432108014,52.211784815122144 c-17.2635977768567,3.9490634706080745 -29.34811622065639,17.306189915311855 -32.800835776027725,35.89001801229103 c-4.069276618830508,21.25525338591993 11.344649967648689,48.898697680176454 36.25355533139907,65.0433983394271 c3.2060967299876726,1.9745317353040372 5.795636396516177,4.529808098638673 5.795636396516177,5.458999503487632 c0,0.9291914048489587 -1.6030483649938363,4.645957024244793 -3.5760309680631734,8.362722643640629 c-3.9459652061386743,7.433531238791669 -8.755110301120183,21.13910446031381 -8.755110301120183,25.204316856528003 c0,1.5099360328795581 14.550746697636361,28.688784624711598 32.43090153795223,60.51359024078843 c35.6369982679399,63.18501552972919 35.390375442556234,62.95271767851695 43.52892868021725,59.35210098472724 c3.699342380755007,-1.7422338840917975 4.4392108569060085,-2.9037231401529957 7.768618999585514,-13.24097751909766 c1.9729826030693371,-6.272041982730471 9.494978777271184,-29.385678178348318 16.647040713397534,-51.33782511790496 c7.152061936126347,-21.83599801395053 13.071009745334358,-41.349017515778655 13.071009745334358,-43.09125139987045 c0,-3.8329145450019544 -4.932456507673343,-8.13042479242839 -9.248355951887518,-8.13042479242839 c-6.412193459975345,0 -7.645307586893681,2.5552763633346363 -20.223071681460706,41.23286859017254 c-11.344649967648689,34.61237983062371 -12.331141269183357,37.167656193958344 -14.92068093571186,37.167656193958344 c-2.4662282538366713,0 -5.918947809208011,-5.342850577881512 -26.142019490668716,-41.23286859017254 c-19.236580379926036,-34.147784128199234 -23.18254558606471,-41.81361321820314 -22.689299935297377,-44.833485283962254 c0.6165570634591679,-4.297510247426434 8.63179888842835,-20.90680660910157 11.344649967648689,-23.810529749254563 c1.1098027142265021,-1.1614892560611982 4.685833682289675,-2.671425288940756 8.015241824969182,-3.3683188425774753 c9.37166736457935,-2.090680660910157 15.043992348403695,-6.7366376851549505 20.099760268768872,-16.376998510462894 c2.4662282538366713,-4.529808098638673 4.4392108569060085,-9.291914048489586 4.4392108569060085,-10.337254378944664 c0,-2.671425288940756 6.412193459975345,-8.014275866822269 16.893663538781198,-13.821722147128261 l8.508487475736516,-4.7621059498509135 l47.84482812443142,-3.0198720657591163 c26.63526514143605,-1.6260849584856776 48.33807377519876,-2.5552763633346363 48.95463083865793,-1.9745317353040372 c0.4932456507673345,0.4645957024244795 4.4392108569060085,19.280721650615895 8.508487475736516,41.5813153669909 c5.179079333057011,28.108039996680997 8.261864650352848,41.5813153669909 9.741601602654853,43.55584710229494 c2.4662282538366713,3.252169916971355 8.385176063044682,4.413659173032554 12.207829856491523,2.4391274377285166 c5.425702158440677,-2.671425288940756 5.179079333057011,-5.342850577881512 -4.192588031522341,-55.286888588513044 c-10.111535840730353,-53.893101481239604 -9.248355951887518,-51.686271894723326 -20.71631733222804,-51.686271894723326 c-3.4527195553713397,0 -28.97818198258089,1.5099360328795581 -56.846561250935274,3.3683188425774753 l-50.55767920365176,3.252169916971355 l-6.658816285359013,3.7167656193958347 c-9.618290189963018,5.342850577881512 -11.344649967648689,4.7621059498509135 -14.057501046869026,-5.1105527266692725 c-6.412193459975345,-23.113636195617847 -18.866646141850534,-37.167656193958344 -38.84309499792757,-43.43969817668882 c-7.645307586893681,-2.4391274377285166 -15.043992348403695,-2.9037231401529957 -21.82612004645454,-1.2776381816673181 zm24.785593951058544,22.18444479076889 c12.08451844379969,8.13042479242839 17.6335320149322,19.62916842743425 18.62002331646687,38.90989007805015 c0.7398684761510016,12.892530742279302 -1.2331141269183357,21.95214693955665 -5.918947809208011,27.5272953686504 c-5.795636396516177,6.96893553636719 -19.606514618001537,2.3229785121223965 -33.91063849025423,-11.382594709399743 c-11.344649967648689,-10.801850081369142 -16.893663538781198,-20.90680660910157 -17.510220602240366,-32.057103467289075 c-0.6165570634591679,-8.943467271671226 1.1098027142265021,-14.6347646263711 5.672324983824344,-19.861466278646493 c5.795636396516177,-6.388190908336591 9.741601602654853,-8.014275866822269 18.866646141850534,-7.665829090003909 c6.905439110742679,0.34844677681835956 8.878421713812017,0.9291914048489587 14.180812459560862,4.529808098638673 z" id="svg_3" class="" stroke-opacity="1" stroke="#f85a16" fill-opacity="1" fill="#f85a16"/>
<path d="M145.6739889871178,147.56589060374938 c-2.8000000417232513,3.0000000447034836 -2.9000000432133675,7.800000116229057 -0.10000000149011612,10.30000015348196 c2.600000038743019,2.3000000342726707 50.30000074952841,31.300000466406345 50.80000075697899,30.800000458955765 c0.20000000298023224,-0.10000000149011612 -0.5000000074505806,-4.6000000685453415 -1.5000000223517418,-9.80000014603138 l-1.8000000268220901,-9.600000143051147 l-19.900000296533108,-12.000000178813934 c-12.500000186264515,-7.500000111758709 -20.90000031143427,-12.000000178813934 -22.600000336766243,-12.000000178813934 c-1.600000023841858,0 -3.7000000551342964,1.0000000149011612 -4.90000007301569,2.3000000342726707 z" id="svg_4" class="" stroke-opacity="1" stroke="#f85a16" fill-opacity="1" fill="#f85a16"/>
<path d="M184.87398957124333,261.3658922995015 c-0.30000000447034836,0.5000000074505806 0.9000000134110451,0.9000000134110451 2.500000037252903,0.9000000134110451 c1.700000025331974,0 3.1000000461935997,-0.20000000298023224 3.1000000461935997,-0.4000000059604645 c0,-0.800000011920929 -5.100000075995922,-1.3000000193715096 -5.600000083446503,-0.5000000074505806 z" id="svg_5" class="" stroke-opacity="1" stroke="#e09d0d"/>
</g></svg>